<?xml version="1.0" encoding="UTF-8"?>
<svg xmlns="http://www.w3.org/2000/svg" xmlns:xlink="http://www.w3.org/1999/xlink" width="15px" height="16px" viewBox="0 0 15 15" version="1.1">
<g id="surface1">
<path style=" stroke:none;fill-rule:nonzero;fill:rgb(16.078432%,15.686275%,15.686275%);fill-opacity:1;" d="M 10.160156 15.234375 C 6.773438 15.234375 3.507812 15.234375 0.242188 15.234375 C 0.242188 10.234375 0.242188 5.234375 0.242188 0.234375 C 5.242188 0.234375 10.242188 0.234375 15.242188 0.234375 C 15.242188 5.234375 15.242188 10.234375 15.242188 15.234375 C 13.589844 15.234375 11.9375 15.234375 10.160156 15.234375 M 8.136719 3.863281 C 8.304688 3.695312 8.554688 3.554688 8.625 3.355469 C 8.738281 3.035156 8.738281 2.671875 8.785156 2.324219 C 8.414062 2.40625 7.917969 2.367188 7.691406 2.589844 C 6.425781 3.828125 5.199219 5.105469 4.007812 6.417969 C 2.980469 7.550781 2.863281 8.550781 3.796875 9.644531 C 4.542969 10.515625 5.523438 11.203125 6.523438 12.121094 C 8.035156 12.648438 9.996094 11.914062 10.566406 10.570312 C 10.648438 10.375 10.578125 10 10.429688 9.871094 C 10.289062 9.75 9.902344 9.761719 9.710938 9.863281 C 9.40625 10.027344 9.160156 10.304688 8.914062 10.558594 C 8.292969 11.199219 7.605469 11.40625 6.648438 10.800781 C 6.082031 10.257812 5.503906 9.722656 4.953125 9.160156 C 4.34375 8.539062 4.269531 7.875 4.90625 7.222656 C 5.589844 6.519531 6.28125 5.832031 7.144531 5.195312 C 7.992188 5.640625 8.824219 6.121094 9.699219 6.511719 C 10.003906 6.644531 10.410156 6.566406 10.773438 6.582031 C 10.679688 6.253906 10.699219 5.785156 10.476562 5.617188 C 9.707031 5.027344 8.855469 4.539062 8.136719 3.863281 M 7.097656 8.796875 C 8.492188 8.808594 9.890625 8.851562 11.289062 8.800781 C 11.59375 8.792969 11.886719 8.433594 12.183594 8.238281 C 11.871094 8.015625 11.566406 7.621094 11.238281 7.601562 C 9.964844 7.527344 8.679688 7.527344 7.40625 7.59375 C 6.625 7.632812 6.136719 7.964844 7.097656 8.796875 Z M 7.097656 8.796875 "/>
<path style=" stroke:none;fill-rule:nonzero;fill:rgb(93.725491%,93.333334%,92.941177%);fill-opacity:1;" d="M 6.402344 11.96875 C 5.523438 11.203125 4.542969 10.515625 3.796875 9.644531 C 2.863281 8.550781 2.980469 7.550781 4.007812 6.417969 C 5.199219 5.105469 6.425781 3.828125 7.691406 2.589844 C 7.917969 2.367188 8.414062 2.40625 8.785156 2.324219 C 8.738281 2.671875 8.738281 3.035156 8.625 3.355469 C 8.554688 3.554688 8.304688 3.695312 8.027344 3.964844 C 7.597656 4.425781 7.285156 4.78125 6.96875 5.136719 C 6.28125 5.832031 5.589844 6.519531 4.90625 7.222656 C 4.269531 7.875 4.34375 8.539062 4.953125 9.160156 C 5.503906 9.722656 6.082031 10.257812 6.726562 10.9375 C 6.671875 11.371094 6.535156 11.667969 6.402344 11.96875 Z M 6.402344 11.96875 "/>
<path style=" stroke:none;fill-rule:nonzero;fill:rgb(61.56863%,61.56863%,61.56863%);fill-opacity:1;" d="M 7 8.761719 C 6.136719 7.964844 6.625 7.632812 7.40625 7.59375 C 8.679688 7.527344 9.964844 7.527344 11.238281 7.601562 C 11.566406 7.621094 11.871094 8.015625 12.183594 8.238281 C 11.886719 8.433594 11.59375 8.792969 11.289062 8.800781 C 9.890625 8.851562 8.492188 8.808594 7 8.761719 Z M 7 8.761719 "/>
<path style=" stroke:none;fill-rule:nonzero;fill:rgb(87.058824%,60.000002%,24.313726%);fill-opacity:1;" d="M 6.460938 12.046875 C 6.535156 11.667969 6.671875 11.371094 6.800781 10.984375 C 7.605469 11.40625 8.292969 11.199219 8.914062 10.558594 C 9.160156 10.304688 9.40625 10.027344 9.710938 9.863281 C 9.902344 9.761719 10.289062 9.75 10.429688 9.871094 C 10.578125 10 10.648438 10.375 10.566406 10.570312 C 9.996094 11.914062 8.035156 12.648438 6.460938 12.046875 Z M 6.460938 12.046875 "/>
<path style=" stroke:none;fill-rule:nonzero;fill:rgb(86.666667%,60.000002%,24.705882%);fill-opacity:1;" d="M 7.054688 5.167969 C 7.285156 4.78125 7.597656 4.425781 7.976562 4.042969 C 8.855469 4.539062 9.707031 5.027344 10.476562 5.617188 C 10.699219 5.785156 10.679688 6.253906 10.773438 6.582031 C 10.410156 6.566406 10.003906 6.644531 9.699219 6.511719 C 8.824219 6.121094 7.992188 5.640625 7.054688 5.167969 Z M 7.054688 5.167969 "/>
</g>
</svg>
